<?xml version="1.0" encoding="UTF-8" standalone="no"?>
<!-- Created with Inkscape (http://www.inkscape.org/) -->
<svg
   xmlns:dc="http://purl.org/dc/elements/1.1/"
   xmlns:cc="http://web.resource.org/cc/"
   xmlns:rdf="http://www.w3.org/1999/02/22-rdf-syntax-ns#"
   xmlns:svg="http://www.w3.org/2000/svg"
   xmlns="http://www.w3.org/2000/svg"
   xmlns:sodipodi="http://sodipodi.sourceforge.net/DTD/sodipodi-0.dtd"
   xmlns:inkscape="http://www.inkscape.org/namespaces/inkscape"
   id="svg2"
   sodipodi:version="0.32"
   inkscape:version="0.45.1"
   width="320"
   height="320"
   version="1.0"
   sodipodi:docbase="D:\Chris\Daten\Graphik\svg\Wikipedia\Nur vektorisiert"
   sodipodi:docname="ki_obsolete.svg"
   inkscape:output_extension="org.inkscape.output.svg.inkscape">
  <metadata
     id="metadata7">
    <rdf:RDF>
      <cc:Work
         rdf:about="">
        <dc:format>image/svg+xml</dc:format>
        <dc:type
           rdf:resource="http://purl.org/dc/dcmitype/StillImage" />
      </cc:Work>
    </rdf:RDF>
  </metadata>
  <defs
     id="defs5" />
  <sodipodi:namedview
     inkscape:window-height="781"
     inkscape:window-width="1280"
     inkscape:pageshadow="2"
     inkscape:pageopacity="0.0"
     guidetolerance="10.0"
     gridtolerance="10.0"
     objecttolerance="10.0"
     borderopacity="1.0"
     bordercolor="#666666"
     pagecolor="#ffffff"
     id="base"
     width="320px"
     height="320px"
     inkscape:zoom="1.1588235"
     inkscape:cx="87.5"
     inkscape:cy="170"
     inkscape:window-x="-4"
     inkscape:window-y="-4"
     inkscape:current-layer="svg2" />
  <path
     id="path2195"
     style="fill:#000000"
     d="M 248.51024,295.90945 C 233.8934,290.7926 207.05701,271.84695 207.05701,266.64476 C 207.05701,265.7553 203.72478,259.33561 199.65206,252.37878 C 195.10221,244.60696 189.92226,230.5151 186.21741,215.83028 C 180.7807,194.28088 180.20941,188.45842 180.40821,156.6241 C 180.59856,126.14356 180.17006,121.31766 177.27335,121.31766 C 171.77169,121.31766 134.57717,130.0327 130.49868,132.27743 C 128.42366,133.41949 125.30379,134.35388 123.56563,134.35388 C 117.0549,134.35388 118.14258,138.5744 125.56045,142.0944 L 133.24561,145.74124 L 132.11889,157.97237 C 131.49919,164.6995 130.43018,172.89222 129.74328,176.17843 C 128.26569,183.24763 127.88023,183.19557 147.58478,178.58761 C 164.65209,174.59638 170.34544,175.3942 168.73529,181.55144 C 167.91692,184.68087 164.07521,186.13539 151.22982,188.17917 C 130.16567,191.53063 128.03062,193.29384 129.7005,205.95886 C 130.41636,211.38814 131.60387,228.75558 132.33942,244.55316 L 133.67678,273.27605 L 127.91164,275.90282 C 116.18013,281.24807 107.10385,273.35144 101.029,252.51417 C 97.662783,240.96768 97.68225,240.81637 102.53477,240.81637 C 107.89661,240.81637 109.21929,236.91878 110.796,216.47244 L 112.10212,199.535 L 102.54609,199.7003 C 97.290273,199.7912 89.627081,201.0807 85.51676,202.56586 C 77.581242,205.43313 73.974032,210.39852 79.826557,210.39852 C 90.020145,210.39852 90.312178,247.59156 80.171757,254.36251 C 75.181034,257.69489 68.027342,255.90808 64.43999,250.43311 C 60.946695,245.10164 61.00777,244.36722 65.750196,234.681 C 76.419019,212.89035 75.626178,206.96423 62.153306,207.7956 C 45.3537,208.83224 47.447035,204.62252 66.175155,199.70755 C 92.824802,192.71369 91.678461,193.44332 85.039982,187.70002 C 79.139983,182.59558 72.349371,171.38921 72.349371,166.75702 C 72.349371,164.95587 75.275829,164.58221 82.079043,165.51469 C 95.776963,167.39219 100.47524,170.95093 102.02985,180.62652 C 102.99883,186.65738 104.29918,188.69508 106.86358,188.20122 C 111.07112,187.39091 111.87596,177.35938 109.00173,161.55073 C 105.95586,144.7979 103.98898,143.74794 83.785093,148.08954 C 63.716176,152.40214 63.06041,152.4436 64.096725,149.33466 C 65.014431,146.58154 68.716893,145.13584 119.0625,127.87227 C 139.37728,120.9063 162.71447,112.67093 170.9229,109.57146 C 186.5497,103.67081 204.12773,102.21544 211.58236,106.20505 C 215.72601,108.42266 215.70617,108.63183 210.70622,115.43904 C 207.8925,119.26978 203.96436,125.975 201.97701,130.33953 C 198.2764,138.46664 193.74183,164.53254 195.50861,167.52153 C 196.04942,168.43644 197.01616,175.28045 197.65698,182.73046 C 199.03523,198.75417 211.22495,237.17981 218.67235,248.97726 C 223.93188,257.30889 238.25126,271.23423 241.55913,271.23423 C 245.18553,271.23423 254.85649,256.244 254.85649,250.62302 C 254.85649,243.66989 259.6613,247.83258 264.64628,259.10448 C 270.2383,271.74903 270.79238,285.82534 266.04314,294.59079 C 262.95366,300.29288 261.37182,300.41186 248.51024,295.90945 z M 165.54363,244.96476 C 158.49914,241.14297 136.49343,220.05195 136.41087,217.04291 C 136.39258,216.37595 135.56139,214.54308 134.56377,212.96985 C 131.62095,208.32897 134.20021,207.79292 147.63814,210.2526 C 164.51123,213.34105 176.7824,221.98852 180.85592,233.66109 C 183.44774,241.08785 183.49543,243.22273 181.13307,246.06921 C 177.53646,250.40284 175.27163,250.24241 165.54363,244.96476 z M 139.09809,157.71045 C 139.73285,152.63175 140.88164,147.77237 141.65095,146.91183 C 142.97971,145.4255 165.02679,150.26244 167.30431,152.53994 C 169.67547,154.9111 165.37414,157.79566 155.51126,160.4486 C 149.80429,161.98368 144.20612,164.07323 143.07088,165.09206 C 139.00506,168.74092 137.96175,166.80239 139.09809,157.71045 z M 96.249113,104.07365 C 98.041594,103.02701 107.81876,99.697085 117.97615,96.673789 C 128.13354,93.650494 142.31043,88.69347 149.48036,85.658159 C 162.79938,80.01971 170.86532,78.990153 182.88568,81.394228 C 192.88377,83.393854 191.16235,88.015304 179.35503,90.872996 C 173.67885,92.246775 161.21296,95.210973 151.65306,97.460113 C 142.09316,99.709252 130.85587,102.57529 126.68131,103.82909 C 117.33792,106.63531 91.506427,106.84289 96.249113,104.07365 z M 83.756066,86.486698 C 77.565316,83.998322 77.61594,83.408129 84.842418,73.822268 C 98.730015,55.400477 107.83023,35.938396 106.57033,27.354093 L 105.62368,20.904161 L 115.96849,22.276462 C 121.65812,23.031216 129.4014,24.725273 133.17578,26.041019 C 139.14654,28.122448 139.85871,29.174471 138.6564,34.137289 C 136.98194,41.048986 124.25835,62.654657 121.86249,62.654657 C 120.91999,62.654657 120.14886,64.139853 120.14886,65.955103 C 120.14886,70.480193 127.07626,68.564651 152.99586,56.872375 C 174.94403,46.971603 187.68353,45.007848 195.04489,50.390592 C 202.2914,55.689382 197.7141,60.481954 185.40682,60.481954 C 179.39912,60.481954 168.85799,62.351022 161.98205,64.635468 C 155.10612,66.919892 141.27264,69.994572 131.24101,71.468122 C 120.29497,73.075966 111.57823,75.570686 109.44192,77.706997 C 106.29159,80.857331 91.388905,88.950262 89.402641,88.589376 C 88.985742,88.513635 86.444787,87.567423 83.756066,86.486698 z " />
</svg>
